# xmcd
#
# Track frame offsets:
# 150
# 16676
# 27863
# 46824
# 61480
# 77080
# 94052
# 110501
# 128291
# 141383
# 154639
# 168312
# 183919
# 196474
# 215180
# 230470
# 245728
# 260711
# 277237
# 293951
# 313960
# 330253
# 343700
#
# Disc length: 4786 seconds
#
#
# Revision: 0
# Processed by: cddbd v1.5.2PL0 Copyright (c) Steve Scherf et al.
# Submitted via: FreeRIP 2.931 
#
DISCID=5412b017
DTITLE=Tião Carreito and Pardinho - As 23 Melhores Modas De Viola
DYEAR=1900
DGENRE=
TTITLE0=Terra Roxa
TTITLE1=Empreitada Perigosa
TTITLE2=A Volta Que O Mundo Dá
TTITLE3=Herói Sem Medalha
TTITLE4=Velho Peão
TTITLE5=Catimbau
TTITLE6=As Três Cuiabanas
TTITLE7=Ultima Viagem
TTITLE8=Boi Cigano
TTITLE9=Rei Do Gado
TTITLE10=O Mineiro E O Italiano
TTITLE11=Preto Inocente
TTITLE12=Morena Do Sul
TTITLE13=Sabrina
TTITLE14=Travessia Do Araguaia
TTITLE15=Irmao Do Ferreirinha
TTITLE16=Boi Soberano
TTITLE17=Derrota Do Boi
TTITLE18=Ferreirinha
TTITLE19=Exemplo De Humildade
TTITLE20=Preto Fugido
TTITLE21=No Preto De Luto
TTITLE22=Boiada Cubana
EXTD=
EXTT0=
EXTT1=
EXTT2=
EXTT3=
EXTT4=
EXTT5=
EXTT6=
EXTT7=
EXTT8=
EXTT9=
EXTT10=
EXTT11=
EXTT12=
EXTT13=
EXTT14=
EXTT15=
EXTT16=
EXTT17=
EXTT18=
EXTT19=
EXTT20=
EXTT21=
EXTT22=
PLAYORDER=
